<svg width="600" height="600" viewBox="0 0 600 600" fill="none" xmlns="http://www.w3.org/2000/svg">
<rect x="199.5" y="240.5" width="39" height="39" transform="rotate(90 199.5 240.5)" fill="#FFC13C" stroke="#454545"/>
<rect x="359.5" y="240.5" width="39" height="39" transform="rotate(90 359.5 240.5)" fill="#FFC13C" stroke="#454545"/>
<rect x="359.5" y="120.5" width="39" height="39" transform="rotate(90 359.5 120.5)" fill="#FFC13C" stroke="#454545"/>
<rect x="359.5" y="520.5" width="39" height="39" transform="rotate(90 359.5 520.5)" fill="#FFC13C" stroke="#454545"/>
<rect x="359.5" y="160.5" width="39" height="39" transform="rotate(90 359.5 160.5)" fill="#FFC13C" stroke="#454545"/>
<rect x="359.5" y="40.5" width="39" height="39" transform="rotate(90 359.5 40.5)" fill="#FFC13C" stroke="#454545"/>
<rect x="359.5" y="0.5" width="39" height="39" transform="rotate(90 359.5 0.5)" fill="#FFC13C" stroke="#454545"/>
<rect x="199.5" y="320.5" width="39" height="39" transform="rotate(90 199.5 320.5)" fill="black" stroke="#454545"/>
<rect x="159.5" y="320.5" width="39" height="39" transform="rotate(90 159.5 320.5)" fill="black" stroke="#454545"/>
<rect x="359.5" y="320.5" width="39" height="39" transform="rotate(90 359.5 320.5)" fill="black" stroke="#454545"/>
<rect x="199.5" y="120.5" width="39" height="39" transform="rotate(90 199.5 120.5)" fill="#FFC13C" stroke="#454545"/>
<rect x="199.5" y="280.5" width="39" height="39" transform="rotate(90 199.5 280.5)" fill="#FFC13C" stroke="#454545"/>
<rect x="359.5" y="280.5" width="39" height="39" transform="rotate(90 359.5 280.5)" fill="#FFC13C" stroke="#454545"/>
<rect x="199.5" y="440.5" width="39" height="39" transform="rotate(90 199.5 440.5)" fill="#FFC13C" stroke="#454545"/>
<rect x="359.5" y="440.5" width="39" height="39" transform="rotate(90 359.5 440.5)" fill="black" stroke="#454545"/>
<rect x="359.5" y="400.5" width="39" height="39" transform="rotate(90 359.5 400.5)" fill="black" stroke="#454545"/>
<rect x="359.5" y="560.5" width="39" height="39" transform="rotate(90 359.5 560.5)" fill="#FFC13C" stroke="#454545"/>
<rect x="399.5" y="200.5" width="39" height="39" transform="rotate(90 399.5 200.5)" fill="black" stroke="#454545"/>
<rect x="199.5" y="200.5" width="39" height="39" transform="rotate(90 199.5 200.5)" fill="black" stroke="#454545"/>
<rect x="399.5" y="160.5" width="39" height="39" transform="rotate(90 399.5 160.5)" fill="black" stroke="#454545"/>
<rect x="199.5" y="160.5" width="39" height="39" transform="rotate(90 199.5 160.5)" fill="black" stroke="#454545"/>
<rect x="359.5" y="200.5" width="39" height="39" transform="rotate(90 359.5 200.5)" fill="#FFC13C" stroke="#454545"/>
<rect x="359.5" y="80.5" width="39" height="39" transform="rotate(90 359.5 80.5)" fill="#FFC13C" stroke="#454545"/>
<rect x="359.5" y="360.5" width="39" height="39" transform="rotate(90 359.5 360.5)" fill="white" stroke="#454545"/>
<rect x="359.5" y="480.5" width="39" height="39" transform="rotate(90 359.5 480.5)" fill="black" stroke="#454545"/>
<rect x="79.5" y="120.5" width="39" height="39" transform="rotate(90 79.5 120.5)" fill="#FFC13C" stroke="#454545"/>
<rect x="240.5" y="479.5" width="39" height="39" transform="rotate(-90 240.5 479.5)" fill="black" stroke="#454545"/>
<rect x="240.5" y="439.5" width="39" height="39" transform="rotate(-90 240.5 439.5)" fill="black" stroke="#454545"/>
<rect x="400.5" y="479.5" width="39" height="39" transform="rotate(-90 400.5 479.5)" fill="#FFC13C" stroke="#454545"/>
<rect x="520.5" y="479.5" width="39" height="39" transform="rotate(-90 520.5 479.5)" fill="#FFC13C" stroke="#454545"/>
<rect x="200.5" y="599.5" width="39" height="39" transform="rotate(-90 200.5 599.5)" fill="#FFC13C" stroke="#454545"/>
<rect x="79.5" y="160.5" width="39" height="39" transform="rotate(90 79.5 160.5)" fill="#FFC13C" stroke="#454545"/>
<rect x="400.5" y="559.5" width="39" height="39" transform="rotate(-90 400.5 559.5)" fill="#FFC13C" stroke="#454545"/>
<rect x="520.5" y="439.5" width="39" height="39" transform="rotate(-90 520.5 439.5)" fill="#FFC13C" stroke="#454545"/>
<rect x="200.5" y="559.5" width="39" height="39" transform="rotate(-90 200.5 559.5)" fill="#FFC13C" stroke="#454545"/>
<rect x="79.5" y="200.5" width="39" height="39" transform="rotate(90 79.5 200.5)" fill="#FFC13C" stroke="#454545"/>
<rect x="79.5" y="240.5" width="39" height="39" transform="rotate(90 79.5 240.5)" fill="#FFC13C" stroke="#454545"/>
<rect x="79.5" y="280.5" width="39" height="39" transform="rotate(90 79.5 280.5)" fill="#FFC13C" stroke="#454545"/>
<rect x="79.5" y="320.5" width="39" height="39" transform="rotate(90 79.5 320.5)" fill="#FFC13C" stroke="#454545"/>
<rect x="79.5" y="360.5" width="39" height="39" transform="rotate(90 79.5 360.5)" fill="#FFC13C" stroke="#454545"/>
<rect x="319.5" y="120.5" width="39" height="39" transform="rotate(90 319.5 120.5)" fill="#FFC13C" stroke="#454545"/>
<rect x="319.5" y="160.5" width="39" height="39" transform="rotate(90 319.5 160.5)" fill="#FFC13C" stroke="#454545"/>
<rect x="479.5" y="160.5" width="39" height="39" transform="rotate(90 479.5 160.5)" fill="#FFC13C" stroke="#454545"/>
<rect x="479.5" y="40.5" width="39" height="39" transform="rotate(90 479.5 40.5)" fill="#FFC13C" stroke="#454545"/>
<rect x="199.5" y="40.5" width="39" height="39" transform="rotate(90 199.5 40.5)" fill="#FFC13C" stroke="#454545"/>
<rect x="319.5" y="40.5" width="39" height="39" transform="rotate(90 319.5 40.5)" fill="#FFC13C" stroke="#454545"/>
<rect x="319.5" y="0.5" width="39" height="39" transform="rotate(90 319.5 0.5)" fill="#FFC13C" stroke="#454545"/>
<rect x="319.5" y="200.5" width="39" height="39" transform="rotate(90 319.5 200.5)" fill="#FFC13C" stroke="#454545"/>
<rect x="479.5" y="200.5" width="39" height="39" transform="rotate(90 479.5 200.5)" fill="#FFC13C" stroke="#454545"/>
<rect x="479.5" y="80.5" width="39" height="39" transform="rotate(90 479.5 80.5)" fill="#FFC13C" stroke="#454545"/>
<rect x="199.5" y="80.5" width="39" height="39" transform="rotate(90 199.5 80.5)" fill="#FFC13C" stroke="#454545"/>
<rect x="599.5" y="200.5" width="39" height="39" transform="rotate(90 599.5 200.5)" fill="#FFC13C" stroke="#454545"/>
<rect x="319.5" y="80.5" width="39" height="39" transform="rotate(90 319.5 80.5)" fill="#FFC13C" stroke="#454545"/>
<rect x="319.5" y="240.5" width="39" height="39" transform="rotate(90 319.5 240.5)" fill="#FFC13C" stroke="#454545"/>
<rect x="479.5" y="240.5" width="39" height="39" transform="rotate(90 479.5 240.5)" fill="#FFC13C" stroke="#454545"/>
<rect x="479.5" y="120.5" width="39" height="39" transform="rotate(90 479.5 120.5)" fill="#FFC13C" stroke="#454545"/>
<rect x="599.5" y="240.5" width="39" height="39" transform="rotate(90 599.5 240.5)" fill="#FFC13C" stroke="#454545"/>
<rect x="319.5" y="280.5" width="39" height="39" transform="rotate(90 319.5 280.5)" fill="#FFC13C" stroke="#454545"/>
<rect x="479.5" y="280.5" width="39" height="39" transform="rotate(90 479.5 280.5)" fill="#FFC13C" stroke="#454545"/>
<rect x="599.5" y="280.5" width="39" height="39" transform="rotate(90 599.5 280.5)" fill="#FFC13C" stroke="#454545"/>
<rect x="319.5" y="320.5" width="39" height="39" transform="rotate(90 319.5 320.5)" fill="black" stroke="#454545"/>
<rect x="479.5" y="320.5" width="39" height="39" transform="rotate(90 479.5 320.5)" fill="black" stroke="#454545"/>
<rect x="599.5" y="320.5" width="39" height="39" transform="rotate(90 599.5 320.5)" fill="#FFC13C" stroke="#454545"/>
<rect x="319.5" y="360.5" width="39" height="39" transform="rotate(90 319.5 360.5)" fill="white" stroke="#454545"/>
<rect x="319.5" y="480.5" width="39" height="39" transform="rotate(90 319.5 480.5)" fill="black" stroke="#454545"/>
<rect x="479.5" y="360.5" width="39" height="39" transform="rotate(90 479.5 360.5)" fill="black" stroke="#454545"/>
<rect x="479.5" y="480.5" width="39" height="39" transform="rotate(90 479.5 480.5)" fill="#FFC13C" stroke="#454545"/>
<rect x="159.5" y="480.5" width="39" height="39" transform="rotate(90 159.5 480.5)" fill="#FFC13C" stroke="#454545"/>
<rect x="599.5" y="360.5" width="39" height="39" transform="rotate(90 599.5 360.5)" fill="#FFC13C" stroke="#454545"/>
<rect x="279.5" y="480.5" width="39" height="39" transform="rotate(90 279.5 480.5)" fill="black" stroke="#454545"/>
<rect x="239.5" y="240.5" width="39" height="39" transform="rotate(90 239.5 240.5)" fill="#FFC13C" stroke="#454545"/>
<rect x="399.5" y="240.5" width="39" height="39" transform="rotate(90 399.5 240.5)" fill="#FFC13C" stroke="#454545"/>
<rect x="399.5" y="120.5" width="39" height="39" transform="rotate(90 399.5 120.5)" fill="#FFC13C" stroke="#454545"/>
<rect x="519.5" y="240.5" width="39" height="39" transform="rotate(90 519.5 240.5)" fill="#FFC13C" stroke="#454545"/>
<rect x="519.5" y="120.5" width="39" height="39" transform="rotate(90 519.5 120.5)" fill="#FFC13C" stroke="#454545"/>
<rect x="399.5" y="520.5" width="39" height="39" transform="rotate(90 399.5 520.5)" fill="#FFC13C" stroke="#454545"/>
<rect x="519.5" y="400.5" width="39" height="39" transform="rotate(90 519.5 400.5)" fill="#FFC13C" stroke="#454545"/>
<rect x="199.5" y="520.5" width="39" height="39" transform="rotate(90 199.5 520.5)" fill="#FFC13C" stroke="#454545"/>
<rect x="439.5" y="160.5" width="39" height="39" transform="rotate(90 439.5 160.5)" fill="black" stroke="#454545"/>
<rect x="239.5" y="160.5" width="39" height="39" transform="rotate(90 239.5 160.5)" fill="black" stroke="#454545"/>
<rect x="399.5" y="40.5" width="39" height="39" transform="rotate(90 399.5 40.5)" fill="#FFC13C" stroke="#454545"/>
<rect x="399.5" y="0.5" width="39" height="39" transform="rotate(90 399.5 0.5)" fill="#FFC13C" stroke="#454545"/>
<rect x="519.5" y="160.5" width="39" height="39" transform="rotate(90 519.5 160.5)" fill="#FFC13C" stroke="#454545"/>
<rect x="239.5" y="40.5" width="39" height="39" transform="rotate(90 239.5 40.5)" fill="#FFC13C" stroke="#454545"/>
<rect x="239.5" y="0.5" width="39" height="39" transform="rotate(90 239.5 0.5)" fill="#FFC13C" stroke="#454545"/>
<rect x="239.5" y="320.5" width="39" height="39" transform="rotate(90 239.5 320.5)" fill="black" stroke="#454545"/>
<rect x="399.5" y="320.5" width="39" height="39" transform="rotate(90 399.5 320.5)" fill="black" stroke="#454545"/>
<rect x="519.5" y="320.5" width="39" height="39" transform="rotate(90 519.5 320.5)" fill="#FFC13C" stroke="#454545"/>
<rect x="239.5" y="120.5" width="39" height="39" transform="rotate(90 239.5 120.5)" fill="#FFC13C" stroke="#454545"/>
<rect x="239.5" y="280.5" width="39" height="39" transform="rotate(90 239.5 280.5)" fill="#FFC13C" stroke="#454545"/>
<rect x="399.5" y="280.5" width="39" height="39" transform="rotate(90 399.5 280.5)" fill="#FFC13C" stroke="#454545"/>
<rect x="519.5" y="280.5" width="39" height="39" transform="rotate(90 519.5 280.5)" fill="#FFC13C" stroke="#454545"/>
<rect x="239.5" y="440.5" width="39" height="39" transform="rotate(90 239.5 440.5)" fill="black" stroke="#454545"/>
<rect x="239.5" y="400.5" width="39" height="39" transform="rotate(90 239.5 400.5)" fill="black" stroke="#454545"/>
<rect x="199.5" y="400.5" width="39" height="39" transform="rotate(90 199.5 400.5)" fill="black" stroke="#454545"/>
<rect x="399.5" y="440.5" width="39" height="39" transform="rotate(90 399.5 440.5)" fill="black" stroke="#454545"/>
<rect x="399.5" y="400.5" width="39" height="39" transform="rotate(90 399.5 400.5)" fill="black" stroke="#454545"/>
<rect x="439.5" y="400.5" width="39" height="39" transform="rotate(90 439.5 400.5)" fill="black" stroke="#454545"/>
<rect x="399.5" y="560.5" width="39" height="39" transform="rotate(90 399.5 560.5)" fill="#FFC13C" stroke="#454545"/>
<rect x="519.5" y="440.5" width="39" height="39" transform="rotate(90 519.5 440.5)" fill="#FFC13C" stroke="#454545"/>
<rect x="439.5" y="200.5" width="39" height="39" transform="rotate(90 439.5 200.5)" fill="black" stroke="#454545"/>
<rect x="239.5" y="200.5" width="39" height="39" transform="rotate(90 239.5 200.5)" fill="black" stroke="#454545"/>
<rect x="399.5" y="80.5" width="39" height="39" transform="rotate(90 399.5 80.5)" fill="#FFC13C" stroke="#454545"/>
<rect x="119.5" y="80.5" width="39" height="39" transform="rotate(90 119.5 80.5)" fill="#FFC13C" stroke="#454545"/>
<rect x="519.5" y="200.5" width="39" height="39" transform="rotate(90 519.5 200.5)" fill="#FFC13C" stroke="#454545"/>
<rect x="519.5" y="80.5" width="39" height="39" transform="rotate(90 519.5 80.5)" fill="#FFC13C" stroke="#454545"/>
<rect x="239.5" y="80.5" width="39" height="39" transform="rotate(90 239.5 80.5)" fill="#FFC13C" stroke="#454545"/>
<rect x="239.5" y="360.5" width="39" height="39" transform="rotate(90 239.5 360.5)" fill="white" stroke="#454545"/>
<rect x="199.5" y="360.5" width="39" height="39" transform="rotate(90 199.5 360.5)" fill="white" stroke="#454545"/>
<rect x="399.5" y="360.5" width="39" height="39" transform="rotate(90 399.5 360.5)" fill="white" stroke="#454545"/>
<rect x="399.5" y="480.5" width="39" height="39" transform="rotate(90 399.5 480.5)" fill="#FFC13C" stroke="#454545"/>
<rect x="519.5" y="360.5" width="39" height="39" transform="rotate(90 519.5 360.5)" fill="#FFC13C" stroke="#454545"/>
<rect x="519.5" y="480.5" width="39" height="39" transform="rotate(90 519.5 480.5)" fill="#FFC13C" stroke="#454545"/>
<rect x="199.5" y="480.5" width="39" height="39" transform="rotate(90 199.5 480.5)" fill="#FFC13C" stroke="#454545"/>
<rect x="119.5" y="240.5" width="39" height="39" transform="rotate(90 119.5 240.5)" fill="#FFC13C" stroke="#454545"/>
<rect x="119.5" y="400.5" width="39" height="39" transform="rotate(90 119.5 400.5)" fill="#FFC13C" stroke="#454545"/>
<rect x="119.5" y="160.5" width="39" height="39" transform="rotate(90 119.5 160.5)" fill="#FFC13C" stroke="#454545"/>
<rect x="119.5" y="320.5" width="39" height="39" transform="rotate(90 119.5 320.5)" fill="#FFC13C" stroke="#454545"/>
<rect x="119.5" y="120.5" width="39" height="39" transform="rotate(90 119.5 120.5)" fill="#FFC13C" stroke="#454545"/>
<rect x="119.5" y="280.5" width="39" height="39" transform="rotate(90 119.5 280.5)" fill="#FFC13C" stroke="#454545"/>
<rect x="119.5" y="440.5" width="39" height="39" transform="rotate(90 119.5 440.5)" fill="#FFC13C" stroke="#454545"/>
<rect x="119.5" y="200.5" width="39" height="39" transform="rotate(90 119.5 200.5)" fill="#FFC13C" stroke="#454545"/>
<rect x="119.5" y="360.5" width="39" height="39" transform="rotate(90 119.5 360.5)" fill="#FFC13C" stroke="#454545"/>
<rect x="280.5" y="479.5" width="39" height="39" transform="rotate(-90 280.5 479.5)" fill="black" stroke="#454545"/>
<rect x="280.5" y="439.5" width="39" height="39" transform="rotate(-90 280.5 439.5)" fill="black" stroke="#454545"/>
<rect x="280.5" y="599.5" width="39" height="39" transform="rotate(-90 280.5 599.5)" fill="#FFC13C" stroke="#454545"/>
<rect x="440.5" y="479.5" width="39" height="39" transform="rotate(-90 440.5 479.5)" fill="#FFC13C" stroke="#454545"/>
<rect x="240.5" y="599.5" width="39" height="39" transform="rotate(-90 240.5 599.5)" fill="#FFC13C" stroke="#454545"/>
<rect x="280.5" y="559.5" width="39" height="39" transform="rotate(-90 280.5 559.5)" fill="#FFC13C" stroke="#454545"/>
<rect x="440.5" y="439.5" width="39" height="39" transform="rotate(-90 440.5 439.5)" fill="#FFC13C" stroke="#454545"/>
<rect x="440.5" y="559.5" width="39" height="39" transform="rotate(-90 440.5 559.5)" fill="#FFC13C" stroke="#454545"/>
<rect x="120.5" y="559.5" width="39" height="39" transform="rotate(-90 120.5 559.5)" fill="#FFC13C" stroke="#454545"/>
<rect x="240.5" y="559.5" width="39" height="39" transform="rotate(-90 240.5 559.5)" fill="#FFC13C" stroke="#454545"/>
<rect x="39.5" y="200.5" width="39" height="39" transform="rotate(90 39.5 200.5)" fill="#FFC13C" stroke="#454545"/>
<rect x="39.5" y="240.5" width="39" height="39" transform="rotate(90 39.5 240.5)" fill="#FFC13C" stroke="#454545"/>
<rect x="39.5" y="280.5" width="39" height="39" transform="rotate(90 39.5 280.5)" fill="#FFC13C" stroke="#454545"/>
<rect x="39.5" y="320.5" width="39" height="39" transform="rotate(90 39.5 320.5)" fill="#FFC13C" stroke="#454545"/>
<rect x="39.5" y="360.5" width="39" height="39" transform="rotate(90 39.5 360.5)" fill="#FFC13C" stroke="#454545"/>
<rect x="279.5" y="120.5" width="39" height="39" transform="rotate(90 279.5 120.5)" fill="#FFC13C" stroke="#454545"/>
<rect x="40.5" y="479.5" width="39" height="39" transform="rotate(-90 40.5 479.5)" fill="#FFC13C" stroke="#454545"/>
<rect x="279.5" y="160.5" width="39" height="39" transform="rotate(90 279.5 160.5)" fill="#FFC13C" stroke="#454545"/>
<rect x="439.5" y="40.5" width="39" height="39" transform="rotate(90 439.5 40.5)" fill="#FFC13C" stroke="#454545"/>
<rect x="159.5" y="40.5" width="39" height="39" transform="rotate(90 159.5 40.5)" fill="#FFC13C" stroke="#454545"/>
<rect x="559.5" y="160.5" width="39" height="39" transform="rotate(90 559.5 160.5)" fill="#FFC13C" stroke="#454545"/>
<rect x="279.5" y="40.5" width="39" height="39" transform="rotate(90 279.5 40.5)" fill="#FFC13C" stroke="#454545"/>
<rect x="279.5" y="0.5" width="39" height="39" transform="rotate(90 279.5 0.5)" fill="#FFC13C" stroke="#454545"/>
<rect x="40.5" y="439.5" width="39" height="39" transform="rotate(-90 40.5 439.5)" fill="#FFC13C" stroke="#454545"/>
<rect x="279.5" y="200.5" width="39" height="39" transform="rotate(90 279.5 200.5)" fill="#FFC13C" stroke="#454545"/>
<rect x="439.5" y="80.5" width="39" height="39" transform="rotate(90 439.5 80.5)" fill="#FFC13C" stroke="#454545"/>
<rect x="159.5" y="80.5" width="39" height="39" transform="rotate(90 159.5 80.5)" fill="#FFC13C" stroke="#454545"/>
<rect x="559.5" y="200.5" width="39" height="39" transform="rotate(90 559.5 200.5)" fill="#FFC13C" stroke="#454545"/>
<rect x="279.5" y="80.5" width="39" height="39" transform="rotate(90 279.5 80.5)" fill="#FFC13C" stroke="#454545"/>
<rect x="279.5" y="240.5" width="39" height="39" transform="rotate(90 279.5 240.5)" fill="#FFC13C" stroke="#454545"/>
<rect x="439.5" y="240.5" width="39" height="39" transform="rotate(90 439.5 240.5)" fill="#FFC13C" stroke="#454545"/>
<rect x="439.5" y="120.5" width="39" height="39" transform="rotate(90 439.5 120.5)" fill="#FFC13C" stroke="#454545"/>
<rect x="559.5" y="240.5" width="39" height="39" transform="rotate(90 559.5 240.5)" fill="#FFC13C" stroke="#454545"/>
<rect x="559.5" y="120.5" width="39" height="39" transform="rotate(90 559.5 120.5)" fill="#FFC13C" stroke="#454545"/>
<rect x="279.5" y="280.5" width="39" height="39" transform="rotate(90 279.5 280.5)" fill="#FFC13C" stroke="#454545"/>
<rect x="439.5" y="280.5" width="39" height="39" transform="rotate(90 439.5 280.5)" fill="#FFC13C" stroke="#454545"/>
<rect x="559.5" y="280.5" width="39" height="39" transform="rotate(90 559.5 280.5)" fill="#FFC13C" stroke="#454545"/>
<rect x="279.5" y="320.5" width="39" height="39" transform="rotate(90 279.5 320.5)" fill="black" stroke="#454545"/>
<rect x="439.5" y="320.5" width="39" height="39" transform="rotate(90 439.5 320.5)" fill="black" stroke="#454545"/>
<rect x="559.5" y="320.5" width="39" height="39" transform="rotate(90 559.5 320.5)" fill="#FFC13C" stroke="#454545"/>
<rect x="279.5" y="360.5" width="39" height="39" transform="rotate(90 279.5 360.5)" fill="white" stroke="#454545"/>
<rect x="439.5" y="360.5" width="39" height="39" transform="rotate(90 439.5 360.5)" fill="white" stroke="#454545"/>
<rect x="439.5" y="480.5" width="39" height="39" transform="rotate(90 439.5 480.5)" fill="#FFC13C" stroke="#454545"/>
<rect x="119.5" y="480.5" width="39" height="39" transform="rotate(90 119.5 480.5)" fill="#FFC13C" stroke="#454545"/>
<rect x="559.5" y="360.5" width="39" height="39" transform="rotate(90 559.5 360.5)" fill="#FFC13C" stroke="#454545"/>
<rect x="239.5" y="480.5" width="39" height="39" transform="rotate(90 239.5 480.5)" fill="#FFC13C" stroke="#454545"/>
<rect x="159.5" y="240.5" width="39" height="39" transform="rotate(90 159.5 240.5)" fill="#FFC13C" stroke="#454545"/>
<rect x="159.5" y="400.5" width="39" height="39" transform="rotate(90 159.5 400.5)" fill="#FFC13C" stroke="#454545"/>
<rect x="159.5" y="160.5" width="39" height="39" transform="rotate(90 159.5 160.5)" fill="#FFC13C" stroke="#454545"/>
<rect x="159.5" y="120.5" width="39" height="39" transform="rotate(90 159.5 120.5)" fill="#FFC13C" stroke="#454545"/>
<rect x="159.5" y="280.5" width="39" height="39" transform="rotate(90 159.5 280.5)" fill="#FFC13C" stroke="#454545"/>
<rect x="159.5" y="440.5" width="39" height="39" transform="rotate(90 159.5 440.5)" fill="#FFC13C" stroke="#454545"/>
<rect x="159.5" y="200.5" width="39" height="39" transform="rotate(90 159.5 200.5)" fill="#FFC13C" stroke="#454545"/>
<rect x="159.5" y="360.5" width="39" height="39" transform="rotate(90 159.5 360.5)" fill="black" stroke="#454545"/>
</svg>
